<?xml version="1.0" standalone="no"?>
<!DOCTYPE svg PUBLIC "-//W3C//DTD SVG 20010904//EN"
 "http://www.w3.org/TR/2001/REC-SVG-20010904/DTD/svg10.dtd">
<svg version="1.0" xmlns="http://www.w3.org/2000/svg"
 width="800.000000pt" height="800.000000pt" viewBox="0 0 800.000000 800.000000"
 preserveAspectRatio="xMidYMid meet">
<metadata>
Created by potrace 1.11, written by Peter Selinger 2001-2013
</metadata>
<g transform="translate(0.000000,800.000000) scale(0.100000,-0.100000)"
fill="#000000" stroke="none">
<path d="M3100 5399 c-47 -5 -206 -25 -355 -44 -407 -53 -403 -53 -455 -19
-34 23 -57 29 -112 32 -90 6 -141 -16 -169 -70 -16 -32 -24 -38 -52 -38 -18 0
-145 -11 -282 -25 -346 -34 -527 -45 -736 -45 -136 0 -179 -3 -181 -12 0 -7
-2 -17 -2 -23 -1 -5 -5 -16 -9 -22 -5 -7 -10 -23 -12 -35 -3 -11 -14 -31 -25
-43 -16 -17 -20 -35 -20 -96 0 -41 7 -102 16 -134 9 -33 16 -68 16 -78 -1 -10
4 -15 10 -11 7 5 8 2 4 -5 -5 -7 0 -18 10 -26 11 -8 16 -15 12 -15 -3 0 0 -21
8 -47 8 -25 14 -63 14 -84 0 -37 1 -39 45 -50 25 -6 45 -17 45 -24 0 -23 69
-74 122 -90 77 -23 330 -18 673 13 l80 7 -32 -80 c-18 -44 -33 -89 -33 -100 0
-12 -18 -38 -40 -60 -33 -32 -45 -56 -71 -139 -17 -56 -58 -171 -91 -256 -167
-432 -196 -539 -205 -776 -5 -135 -4 -164 10 -185 8 -13 27 -68 41 -122 14
-54 37 -122 52 -153 19 -41 24 -64 20 -89 l-7 -33 96 -47 c52 -26 98 -52 101
-56 3 -5 24 -19 47 -30 23 -12 54 -33 69 -46 26 -25 31 -26 126 -21 154 7 248
62 304 177 19 38 23 62 23 137 0 89 -1 91 -34 129 -19 22 -51 48 -73 58 -21
11 -48 32 -59 49 -23 32 -22 65 8 186 8 35 16 68 17 75 8 46 53 158 75 187 15
19 35 64 45 100 25 93 64 188 98 237 15 23 39 74 53 114 13 40 44 106 68 148
24 42 56 114 71 161 15 47 63 168 106 270 43 102 87 207 97 235 22 58 -2 51
278 85 371 46 420 51 572 54 133 3 166 6 211 25 32 13 75 21 110 21 l57 0 62
70 c72 82 88 125 78 215 -12 108 -56 178 -182 288 -32 27 -65 61 -74 74 -9 13
-35 38 -59 55 l-44 32 -225 2 c-124 2 -264 -2 -311 -7z"/>
<path d="M5485 5390 c-71 -36 -73 -40 -120 -206 -48 -173 -103 -339 -215 -649
-40 -110 -105 -292 -145 -405 -41 -113 -90 -243 -109 -290 -20 -47 -36 -100
-36 -118 0 -18 -9 -50 -20 -72 -24 -47 -84 -271 -105 -394 -17 -103 -20 -282
-4 -358 18 -92 59 -203 95 -263 19 -32 44 -77 55 -99 66 -135 100 -171 207
-219 102 -46 166 -58 312 -57 159 0 232 13 505 93 159 46 212 57 325 67 74 6
180 15 235 20 112 11 239 0 317 -26 39 -13 58 -14 91 -6 23 6 85 14 137 18 87
7 99 10 139 40 27 22 63 37 100 45 l56 11 -1 101 c0 62 -6 111 -13 126 -7 13
-22 71 -32 130 -15 84 -24 110 -42 123 -38 30 -149 85 -225 112 -96 34 -131
52 -168 88 -25 23 -43 30 -90 35 -32 3 -69 11 -81 19 -18 11 -63 12 -260 4
-387 -16 -537 -36 -656 -88 -34 -14 -52 -16 -92 -9 -27 4 -51 10 -52 11 -2 2
3 36 11 77 17 89 64 225 156 454 38 94 74 199 81 235 6 36 18 72 26 81 7 9 24
44 38 79 13 34 29 68 34 74 6 7 18 44 26 82 9 38 44 134 77 214 33 80 75 186
93 237 18 51 42 104 54 119 31 40 30 160 -3 229 -30 65 -90 143 -147 193 -38
34 -55 41 -119 51 -81 13 -199 51 -272 87 -58 29 -110 30 -163 4z"/>
</g>
</svg>
